HIERARCHY
ROOT joint_Root
{
	OFFSET 0.0 0.0 0.0
	CHANNELS 6 Xposition Yposition Zposition Zrotation Xrotation Yrotation 
	JOINT Hips
	{
		OFFSET -0.726466 93.3139 -2.00062
		CHANNELS 6 Xposition Yposition Zposition Zrotation Xrotation Yrotation 
		JOINT Spine
		{
			OFFSET 15.7357 0.0 0.0
			CHANNELS 6 Xposition Yposition Zposition Zrotation Xrotation Yrotation 
			JOINT Chest
			{
				OFFSET 8.98455 -0.406207 0.0
				CHANNELS 6 Xposition Yposition Zposition Zrotation Xrotation Yrotation 
				JOINT Neck
				{
					OFFSET 16.3773 0.0 0.0
					CHANNELS 6 Xposition Yposition Zposition Zrotation Xrotation Yrotation 
					JOINT Head
					{
						OFFSET 6.45672 0.0 0.0
						CHANNELS 6 Xposition Yposition Zposition Zrotation Xrotation Yrotation 
						End Site
						{
							OFFSET 0.0 0.0 0.0
						}
					}
				}
				JOINT Shoulder_L
				{
					OFFSET 12.9942 -0.242716 4.98039
					CHANNELS 6 Xposition Yposition Zposition Zrotation Xrotation Yrotation 
					JOINT UpperArm_L
					{
						OFFSET 5.34809 0.0 0.0
						CHANNELS 6 Xposition Yposition Zposition Zrotation Xrotation Yrotation 
						JOINT LowerArm_L
						{
							OFFSET 24.3286 1.87007e-05 0.0
							CHANNELS 6 Xposition Yposition Zposition Zrotation Xrotation Yrotation 
							JOINT Hand_L
							{
								OFFSET 22.2916 0.0 0.0
								CHANNELS 6 Xposition Yposition Zposition Zrotation Xrotation Yrotation 
								End Site
								{
									OFFSET 0.0 0.0 0.0
								}
							}
						}
					}
				}
				JOINT Shoulder_R
				{
					OFFSET 12.9945 -0.242716 -4.98039
					CHANNELS 6 Xposition Yposition Zposition Zrotation Xrotation Yrotation 
					JOINT UpperArm_R
					{
						OFFSET -5.34813 0.0 0.0
						CHANNELS 6 Xposition Yposition Zposition Zrotation Xrotation Yrotation 
						JOINT LowerArm_R
						{
							OFFSET -24.3289 0.000322201 0.0
							CHANNELS 6 Xposition Yposition Zposition Zrotation Xrotation Yrotation 
							JOINT Hand_R
							{
								OFFSET -22.2915 -0.000108084 0.0
								CHANNELS 6 Xposition Yposition Zposition Zrotation Xrotation Yrotation 
								End Site
								{
									OFFSET 0.0 0.0 0.0
								}
							}
						}
					}
				}
			}
		}
		JOINT UpperLeg_L
		{
			OFFSET -2.19248 -6.46944 0.0
			CHANNELS 6 Xposition Yposition Zposition Zrotation Xrotation Yrotation 
			JOINT LowerLeg_L
			{
				OFFSET 39.0811 0.0 -1.23785e-05
				CHANNELS 6 Xposition Yposition Zposition Zrotation Xrotation Yrotation 
				JOINT Foot_L
				{
					OFFSET 40.9854 0.0 -1.26872e-05
					CHANNELS 6 Xposition Yposition Zposition Zrotation Xrotation Yrotation 
					JOINT Toes_L
					{
						OFFSET 11.7543 0.0 0.0
						CHANNELS 6 Xposition Yposition Zposition Zrotation Xrotation Yrotation 
						End Site
						{
							OFFSET 0.0 0.0 0.0
						}
					}
				}
			}
		}
		JOINT UpperLeg_R
		{
			OFFSET -2.19251 6.46944 0.0
			CHANNELS 6 Xposition Yposition Zposition Zrotation Xrotation Yrotation 
			JOINT LowerLeg_R
			{
				OFFSET -39.0811 -0.00228153 -0.0401928
				CHANNELS 6 Xposition Yposition Zposition Zrotation Xrotation Yrotation 
				JOINT Foot_R
				{
					OFFSET -40.9854 0.0 0.0
					CHANNELS 6 Xposition Yposition Zposition Zrotation Xrotation Yrotation 
					JOINT Toes_R
					{
						OFFSET -11.7543 0.0 0.0
						CHANNELS 6 Xposition Yposition Zposition Zrotation Xrotation Yrotation 
						End Site
						{
							OFFSET 0.0 0.0 0.0
						}
					}
				}
			}
		}
	}
}
MOTION
Frames:	8
Frame Time:	0.0333333
0.000000 0.000000 0.000000 0.000000 0.000000 -0.000000 -169.309000 90.208800 183.438000 35.371100 86.762100 59.879900 15.735700 0.000005 -0.000001 88.543800 82.300800 -86.916000 8.984550 -0.406207 -0.000000 7.635130 -0.391606 3.278390 16.377300 -0.000001 -0.000001 2.977770 -0.437637 -0.579582 6.456720 -0.000001 -0.000000 1.724350 -0.259804 -1.044280 12.994200 -0.242716 4.980390 -89.420300 -1.635750 -70.483600 5.348090 -0.000007 -0.000001 -68.223100 35.988700 -18.520200 24.328600 0.000019 0.000005 -0.576328 -0.801324 -35.712600 22.291600 -0.000001 0.000005 10.312400 5.542400 -8.341740 12.994500 -0.242716 -4.980390 88.327000 5.323420 -72.525000 -5.348130 -0.000001 -0.000004 -67.124100 27.970000 -13.687900 -24.328900 0.000322 -0.000009 1.728100 10.272800 -9.608260 -22.291500 -0.000108 -0.000004 11.268800 5.331420 -0.826989 -2.192480 -6.469440 -0.000000 -174.391000 -5.932530 -16.222100 39.081100 -0.000007 -0.000012 0.062984 -0.022767 70.121600 40.985400 -0.000006 -0.000013 6.542920 -8.605170 -49.984900 11.754300 -0.000000 0.000003 -0.004680 -0.058346 -18.950500 -2.192510 6.469440 -0.000001 -178.754000 13.032400 174.577000 -39.081100 -0.002282 -0.040193 0.065027 -0.096203 32.687400 -40.985400 0.000008 0.000006 4.975020 0.532583 -72.099500 -11.754300 -0.000006 -0.000006 -0.010457 -0.107021 -20.934000
0.000000 0.000000 0.000000 0.000000 0.000000 -0.000000 -166.651000 90.516300 183.595000 55.751000 86.715400 39.616300 15.735700 0.000005 -0.000001 91.576500 82.283400 -90.282400 8.984550 -0.406207 -0.000000 7.658040 0.421683 2.557170 16.377300 -0.000001 -0.000001 2.923530 -0.401633 -0.391534 6.456720 -0.000001 -0.000000 1.690830 -0.894803 -1.171610 12.994200 -0.242716 4.980390 -89.357200 -1.778750 -70.127000 5.348090 -0.000007 -0.000001 -70.950200 36.676900 -14.838100 24.328600 0.000019 0.000005 0.323137 0.519814 -31.960300 22.291600 -0.000001 0.000005 8.287980 5.521110 -7.398710 12.994500 -0.242716 -4.980390 88.413800 5.221650 -73.077000 -5.348130 -0.000001 -0.000004 -65.725600 29.353900 -17.230700 -24.328900 0.000322 -0.000009 1.959560 9.555880 -11.653000 -22.291500 -0.000108 -0.000004 11.132700 5.338280 -1.028640 -2.192480 -6.469440 -0.000000 -175.637000 -7.310130 -19.430900 39.081100 -0.000007 -0.000012 0.064501 -0.026952 67.318100 40.985400 -0.000006 -0.000013 6.083470 -6.854110 -52.752000 11.754300 -0.000000 0.000003 -0.005672 -0.067833 -19.337200 -2.192510 6.469440 -0.000001 179.884000 13.138200 177.893000 -39.081100 -0.002282 -0.040193 0.055762 -0.090115 30.206100 -40.985400 0.000008 0.000006 4.991580 1.571520 -72.564400 -11.754300 -0.000006 -0.000006 -0.010299 -0.105859 -20.886500
0.000000 0.000000 0.000000 0.000000 0.000000 -0.000000 -164.121000 90.676600 183.699000 72.916400 86.040200 22.143900 15.735700 0.000005 -0.000001 94.651600 82.344100 -93.685600 8.984550 -0.406207 -0.000000 7.486860 1.234610 1.849260 16.377300 -0.000001 -0.000001 2.638450 -0.260301 -0.238527 6.456720 -0.000001 -0.000000 1.553320 -1.389440 -1.230090 12.994200 -0.242716 4.980390 -89.350500 -1.760550 -69.745500 5.348090 -0.000007 -0.000001 -73.543800 36.370900 -11.058000 24.328600 0.000019 0.000005 1.185730 2.244940 -27.867700 22.291600 -0.000001 0.000005 6.355980 5.495870 -6.361360 12.994500 -0.242716 -4.980390 88.483900 5.196540 -73.711000 -5.348130 -0.000001 -0.000004 -64.124800 30.039500 -20.730500 -24.328900 0.000322 -0.000009 2.076670 8.216000 -14.247800 -22.291500 -0.000108 -0.000004 10.940100 5.353180 -1.473210 -2.192480 -6.469440 -0.000000 -176.652000 -8.852760 -22.124100 39.081100 -0.000007 -0.000012 0.064961 -0.035261 61.503300 40.985400 -0.000006 -0.000013 5.570480 -5.206280 -54.904100 11.754300 -0.000000 0.000003 -0.004950 -0.060989 -19.058200 -2.192510 6.469440 -0.000001 178.730000 12.832400 -179.500000 -39.081100 -0.002282 -0.040193 0.045620 -0.079780 27.940700 -40.985400 0.000008 0.000006 4.857310 2.398070 -73.033300 -11.754300 -0.000006 -0.000006 -0.009861 -0.102594 -20.753000
0.000000 0.000000 0.000000 0.000000 0.000000 -0.000000 -161.646000 90.714000 183.748000 81.820000 85.035000 12.878400 15.735700 0.000005 -0.000001 97.473300 82.350900 -96.758300 8.984550 -0.406207 -0.000000 7.393650 1.979950 1.300660 16.377300 -0.000001 -0.000001 2.185900 -0.090218 -0.137386 6.456720 -0.000001 -0.000000 1.164850 -1.690710 -1.349620 12.994200 -0.242716 4.980390 -89.405200 -1.584640 -69.421000 5.348090 -0.000007 -0.000001 -75.982400 34.768800 -7.356460 24.328600 0.000019 0.000005 1.782700 4.093920 -23.566800 22.291600 -0.000001 0.000005 5.504310 5.468830 -5.324470 12.994500 -0.242716 -4.980390 88.525700 5.246090 -74.279300 -5.348130 -0.000001 -0.000004 -61.979900 30.746500 -24.427200 -24.328900 0.000322 -0.000009 2.053800 6.658630 -17.196600 -22.291500 -0.000108 -0.000004 11.124400 5.367400 -1.905970 -2.192480 -6.469440 -0.000000 -177.296000 -10.272900 -23.557600 39.081100 -0.000007 -0.000012 0.055675 -0.042761 52.471900 40.985400 -0.000006 -0.000013 5.337370 -4.341330 -56.205800 11.754300 -0.000000 0.000003 -0.005493 -0.066163 -19.269200 -2.192510 6.469440 -0.000001 177.736000 12.588000 -177.054000 -39.081100 -0.002282 -0.040193 0.036989 -0.069696 25.791100 -40.985400 0.000008 0.000006 4.888550 3.305210 -73.474600 -11.754300 -0.000006 -0.000006 -0.009455 -0.099517 -20.627100
0.000000 0.000000 0.000000 0.000000 0.000000 -0.000000 -159.178000 90.511300 183.754000 84.570000 84.125600 9.567510 15.735700 0.000005 -0.000001 99.732000 82.384700 -99.156700 8.984550 -0.406207 -0.000000 7.238250 2.562590 0.987364 16.377300 -0.000001 -0.000001 1.605380 0.055020 -0.124609 6.456720 -0.000001 -0.000000 0.721740 -1.877800 -1.417100 12.994200 -0.242716 4.980390 -89.401800 -1.570920 -69.149100 5.348090 -0.000007 -0.000001 -78.250700 31.968800 -4.185260 24.328600 0.000019 0.000005 2.226040 6.520180 -18.913300 22.291600 -0.000001 0.000005 5.195100 5.440250 -4.294050 12.994500 -0.242716 -4.980390 88.573800 5.265170 -74.820000 -5.348130 -0.000001 -0.000004 -59.624000 31.187100 -28.048100 -24.328900 0.000322 -0.000009 1.998970 5.446150 -20.204400 -22.291500 -0.000108 -0.000004 11.567500 5.381560 -2.346780 -2.192480 -6.469440 -0.000000 -177.447000 -11.037100 -23.873400 39.081100 -0.000007 -0.000012 0.038565 -0.045165 40.491700 40.985400 -0.000006 -0.000013 4.440920 -3.705790 -55.752500 11.754300 -0.000000 0.000003 -0.005496 -0.066196 -19.270500 -2.192510 6.469440 -0.000001 176.848000 13.007700 -175.106000 -39.081100 -0.002282 -0.040193 0.028036 -0.054723 24.312100 -40.985400 0.000008 0.000006 4.796000 4.594940 -74.305400 -11.754300 -0.000006 -0.000006 -0.009347 -0.098693 -20.593400
0.000000 0.000000 0.000000 0.000000 0.000000 -0.000000 -156.574000 90.060800 183.711000 83.363600 83.388000 10.022200 15.735700 0.000005 -0.000001 101.910000 82.518300 -101.342000 8.984550 -0.406207 -0.000000 6.867860 3.073300 0.949438 16.377300 -0.000001 -0.000001 1.043470 0.067506 -0.117350 6.456720 -0.000001 -0.000000 0.345560 -2.093990 -1.478410 12.994200 -0.242716 4.980390 -89.309100 -1.803070 -69.029600 5.348090 -0.000007 -0.000001 -80.204100 28.082900 -1.240360 24.328600 0.000019 0.000005 2.480170 9.387230 -14.880300 22.291600 -0.000001 0.000005 5.208070 5.403780 -3.064200 12.994500 -0.242716 -4.980390 88.661400 5.069800 -75.188500 -5.348130 -0.000001 -0.000004 -57.500400 31.525400 -31.111700 -24.328900 0.000322 -0.000009 1.895480 4.439910 -23.160200 -22.291500 -0.000108 -0.000004 12.227800 5.394640 -2.763090 -2.192480 -6.469440 -0.000000 -176.847000 -10.639400 -23.358400 39.081100 -0.000007 -0.000012 0.020100 -0.039651 26.880800 40.985400 -0.000006 -0.000013 2.333710 -3.251860 -53.163400 11.754300 -0.000000 0.000003 -0.004429 -0.055836 -18.848300 -2.192510 6.469440 -0.000001 176.223000 13.620400 -173.614000 -39.081100 -0.002282 -0.040193 0.018832 -0.035433 23.649600 -40.985400 0.000008 0.000006 4.694510 5.798190 -75.456000 -11.754300 -0.000006 -0.000006 -0.009566 -0.100369 -20.662000
0.000000 0.000000 0.000000 0.000000 0.000000 -0.000000 -153.614000 89.456600 183.585000 81.553400 82.530600 11.275000 15.735700 0.000005 -0.000001 104.448000 82.625700 -103.878000 8.984550 -0.406207 -0.000000 6.508290 3.662440 0.931088 16.377300 -0.000001 -0.000001 0.558534 0.062140 -0.057121 6.456720 -0.000001 -0.000000 0.016707 -2.305960 -1.426360 12.994200 -0.242716 4.980390 -89.101900 -2.332440 -68.934700 5.348090 -0.000007 -0.000001 -81.561800 23.759100 1.134120 24.328600 0.000019 0.000005 2.289460 11.419600 -11.418400 22.291600 -0.000001 0.000005 5.430230 5.358200 -1.626050 12.994500 -0.242716 -4.980390 88.743300 4.833480 -75.406600 -5.348130 -0.000001 -0.000004 -56.089500 31.446100 -33.227200 -24.328900 0.000322 -0.000009 1.913410 3.941330 -25.935100 -22.291500 -0.000108 -0.000004 12.640700 5.407800 -3.192080 -2.192480 -6.469440 -0.000000 -175.465000 -9.912860 -23.817900 39.081100 -0.000007 -0.000012 0.015064 -0.048727 17.180100 40.985400 -0.000006 -0.000013 -1.959120 -1.719960 -49.354000 11.754300 -0.000000 0.000003 -0.004092 -0.052396 -18.708200 -2.192510 6.469440 -0.000001 175.604000 13.666100 -172.238000 -39.081100 -0.002282 -0.040193 0.009292 -0.013507 23.873000 -40.985400 0.000008 0.000006 4.305010 6.636130 -76.234100 -11.754300 -0.000006 -0.000006 -0.011369 -0.113596 -21.203100
0.000000 0.000000 0.000000 0.000000 0.000000 -0.000000 -150.163000 88.833500 183.233000 81.024500 81.300900 11.489800 15.735700 0.000005 -0.000001 107.439000 82.682500 -106.920000 8.984550 -0.406207 -0.000000 6.190550 4.366560 0.800586 16.377300 -0.000001 -0.000001 0.282343 0.116633 0.111422 6.456720 -0.000001 -0.000000 -0.305081 -2.479250 -1.311670 12.994200 -0.242716 4.980390 -88.962400 -2.674390 -68.785400 5.348090 -0.000007 -0.000001 -81.995100 20.095500 3.081180 24.328600 0.000019 0.000005 1.961560 12.797500 -8.789710 22.291600 -0.000001 0.000005 5.487990 5.311900 -0.264397 12.994500 -0.242716 -4.980390 88.767500 4.824820 -75.652000 -5.348130 -0.000001 -0.000004 -55.013200 31.333100 -34.512500 -24.328900 0.000322 -0.000009 1.795190 3.328590 -28.377500 -22.291500 -0.000108 -0.000004 13.188800 5.412470 -3.346840 -2.192480 -6.469440 -0.000000 -175.832000 -11.337700 -24.790100 39.081100 -0.000007 -0.000012 0.021239 -0.086343 13.819900 40.985400 -0.000006 -0.000013 -1.773270 -0.108383 -52.892700 11.754300 -0.000000 0.000003 -0.003958 -0.051011 -18.651800 -2.192510 6.469440 -0.000001 174.931000 12.297800 -171.341000 -39.081100 -0.002282 -0.040193 0.003059 0.000532 25.383800 -40.985400 0.000008 0.000006 4.003900 6.723600 -75.602500 -11.754300 -0.000006 -0.000006 -0.189597 -0.320044 -22.766700
